<svg width="1920" height="1080" viewBox="0 0 1920 1080" fill="none" xmlns="http://www.w3.org/2000/svg" xmlns:xlink="http://www.w3.org/1999/xlink">
<path d="M75 -19L76.9057 34.0943L130 36L76.9057 37.9057L75 91L73.0943 37.9057L20 36L73.0943 34.0943L75 -19Z" fill="#1D1B1B"/>
<path d="M1797.5 973L1799.62 985.898C1801.52 997.434 1810.57 1006.48 1822.1 1008.38L1835 1010.5L1822.1 1012.62C1810.57 1014.52 1801.52 1023.57 1799.62 1035.1L1797.5 1048L1795.38 1035.1C1793.48 1023.57 1784.43 1014.52 1772.9 1012.62L1760 1010.5L1772.9 1008.38C1784.43 1006.48 1793.48 997.434 1795.38 985.898L1797.5 973Z" fill="#1D1B1B"/>
<path d="M1834.5 36L1838.39 59.6109L1862 63.5L1838.39 67.3891L1834.5 91L1830.61 67.3891L1807 63.5L1830.61 59.6109L1834.5 36Z" fill="#1D1B1B"/>
<path d="M1084.5 839L1085.13 856.11C1085.52 866.579 1093.92 874.974 1104.39 875.356L1122 876L1104.39 876.644C1093.92 877.026 1085.52 885.421 1085.13 895.89L1084.5 913L1083.87 895.89C1083.48 885.421 1075.08 877.026 1064.61 876.644L1047 876L1064.61 875.356C1075.08 874.974 1083.48 866.579 1083.87 856.11L1084.5 839Z" fill="#1D1B1B"/>
<path d="M88.5 665L92.3891 688.611L116 692.5L92.3891 696.389L88.5 720L84.6109 696.389L61 692.5L84.6109 688.611L88.5 665Z" fill="#1D1B1B"/>
<path d="M1185.5 64L1189.39 87.6109L1213 91.5L1189.39 95.3891L1185.5 119L1181.61 95.3891L1158 91.5L1181.61 87.6109L1185.5 64Z" fill="#1D1B1B"/>
<rect x="-35" y="-25" width="702" height="269"/>
<rect x="1437" y="811" width="702" height="269"/>
</svg>
